<?xml version="1.0" encoding="utf-8"?>
<!-- Generator: Adobe Illustrator 18.1.1, SVG Export Plug-In . SVG Version: 6.00 Build 0)  -->
<svg version="1.1" id="Layer_1" xmlns="http://www.w3.org/2000/svg" xmlns:xlink="http://www.w3.org/1999/xlink" x="0px" y="0px"
	 width="100px" height="100px" viewBox="0 0 100 100" enable-background="new 0 0 100 100" xml:space="preserve">
<g>
	<path fill="#B3B3B3" d="M86,98.1H14c-6.6,0-12-5.4-12-12v-72c0-6.6,5.4-12,12-12h72c6.6,0,12,5.4,12,12v72
		C98,92.7,92.6,98.1,86,98.1z M14,8.8c-2.9,0-5.3,2.4-5.3,5.3v72c0,2.9,2.4,5.3,5.3,5.3h72c2.9,0,5.3-2.4,5.3-5.3v-72
		c0-2.9-2.4-5.3-5.3-5.3H14z"/>
	<g>
		<path fill="#B3B3B3" d="M54.5,19.8v26.3h25.3v6.7H54.5v26.6h-7.2V52.9H22v-6.7h25.3V19.8H54.5z"/>
	</g>
</g>
</svg>
